<?xml version="1.0" standalone="no"?>
<!DOCTYPE svg PUBLIC "-//W3C//DTD SVG 20010904//EN"
 "http://www.w3.org/TR/2001/REC-SVG-20010904/DTD/svg10.dtd">
<svg version="1.0" xmlns="http://www.w3.org/2000/svg"
 width="512.000000pt" height="512.000000pt" viewBox="0 0 512.000000 512.000000"
 preserveAspectRatio="xMidYMid meet">
<metadata>
Created by potrace 1.14, written by Peter Selinger 2001-2017
</metadata>
<g transform="translate(0.000000,512.000000) scale(0.100000,-0.100000)"
fill="#000000" stroke="none">
<path d="M3186 5103 c-27 -8 -61 -22 -75 -31 -72 -47 -128 -143 -138 -237 -5
-46 -9 -56 -27 -59 -12 -3 -50 -10 -86 -16 -89 -16 -216 -79 -284 -141 -31
-28 -78 -84 -104 -124 -47 -69 -112 -224 -112 -265 0 -23 -8 -29 -55 -35 -69
-8 -111 -48 -160 -150 -37 -78 -44 -106 -52 -216 -12 -171 64 -303 194 -338
19 -5 27 -15 29 -34 l3 -27 -107 -1 c-59 0 -120 -2 -137 -4 -65 -6 -157 -17
-178 -21 -12 -2 -48 -9 -79 -14 -355 -65 -940 -324 -1219 -540 -66 -51 -179
-167 -228 -233 -163 -223 -192 -489 -76 -717 99 -196 367 -401 678 -520 45
-17 85 -36 89 -43 4 -6 -6 -23 -23 -39 -16 -16 -29 -38 -29 -51 0 -17 59 -81
211 -232 116 -116 231 -231 257 -257 25 -27 51 -48 59 -48 11 0 13 -63 13
-341 0 -314 1 -343 18 -355 14 -11 230 -13 1189 -14 1052 0 1173 2 1187 16 18
17 18 16 18 214 l0 145 66 3 c375 14 652 84 778 195 63 55 86 106 89 192 2 64
-1 100 -20 225 -49 326 -213 798 -417 1205 -190 379 -346 556 -653 740 -59 36
-101 67 -94 69 110 32 175 82 242 184 84 128 115 265 78 348 -11 23 -28 48
-40 56 l-22 15 25 49 c84 168 104 373 52 522 -26 74 -76 158 -125 213 l-48 54
28 46 c93 149 78 291 -42 410 -148 147 -504 254 -673 202z m-1636 -2991 l0
-158 -49 -1 c-27 -1 -75 -11 -105 -21 l-56 -19 -66 89 c-37 49 -65 91 -62 93
3 4 328 172 336 174 1 1 2 -70 2 -157z"/>
</g>
</svg>
